<svg width="22" height="22" viewBox="0 0 22 22" fill="none" xmlns="http://www.w3.org/2000/svg">
<path d="M1 11C1 10.0714 1 9.60705 1.03425 9.2156C1.41491 4.86458 4.86458 1.41491 9.2156 1.03425C9.60705 1 10.0714 1 11 1V1C11.9286 1 12.3929 1 12.7844 1.03425C17.1354 1.41491 20.5851 4.86458 20.9658 9.2156C21 9.60705 21 10.0714 21 11V17.3636C21 18.8983 21 19.6657 20.6011 20.1986C20.4868 20.3512 20.3512 20.4868 20.1986 20.6011C19.6657 21 18.8983 21 17.3636 21H11C10.0714 21 9.60705 21 9.2156 20.9658C4.86458 20.5851 1.41491 17.1354 1.03425 12.7844C1 12.3929 1 11.9286 1 11V11Z" stroke="#F5F5F5" stroke-width="2"/>
<path d="M7.5 7L15 7" stroke="#F5F5F5" stroke-width="2" stroke-linecap="round" stroke-linejoin="round"/>
<path d="M11.25 12H15" stroke="#F5F5F5" stroke-width="2" stroke-linecap="round" stroke-linejoin="round"/>
</svg>
