<svg width="24" height="24" viewBox="0 0 24 24" fill="none" xmlns="http://www.w3.org/2000/svg">
<path d="M17 3H19C20.1046 3 21 3.89543 21 5V7M17 21H19C20.1046 21 21 20.1046 21 19V17M7 3H5C3.89543 3 3 3.89543 3 5V7M7 21H5C3.89543 21 3 20.1046 3 19V17" stroke="#37474F" stroke-width="2" stroke-linecap="round"/>
<path d="M15.9998 13C17.5567 13 18.3222 14.0553 18.6873 14.9141C18.9226 15.4676 18.4685 16 17.867 16H14.1326C14.1112 16 14.0901 15.9974 14.0692 15.9961C14.5885 15.96 14.9885 15.5228 14.8318 15.0176C14.7041 14.6056 14.4772 14.1364 14.0818 13.7529C14.5246 13.3213 15.1417 13.0001 15.9998 13Z" fill="#37474F"/>
<path d="M8.00002 13C8.85783 13.0001 9.47435 13.3215 9.91701 13.7529C9.52196 14.1363 9.2957 14.6058 9.16799 15.0176C9.0114 15.5225 9.41083 15.9596 9.9297 15.9961C9.90903 15.9974 9.88827 16 9.8672 16H6.13283C5.53133 16 5.07719 15.4676 5.31252 14.9141C5.67766 14.0553 6.44319 13 8.00002 13Z" fill="#37474F"/>
<path d="M12 13C13.8516 13 14.5604 14.1429 14.8317 15.0178C14.9953 15.5453 14.5523 16 14 16H10C9.44772 16 9.00469 15.5453 9.16826 15.0178C9.43957 14.1429 10.1484 13 12 13Z" fill="#37474F"/>
<circle cx="12" cy="9" r="2" fill="#37474F"/>
<circle cx="16" cy="9" r="2" fill="#37474F"/>
<circle cx="8" cy="9" r="2" fill="#37474F"/>
</svg>
