<svg width="25" height="24" viewBox="0 0 25 24" fill="none" xmlns="http://www.w3.org/2000/svg">
<path d="M3.5 6.2C3.5 5.07989 3.5 4.51984 3.71799 4.09202C3.90973 3.71569 4.21569 3.40973 4.59202 3.21799C5.01984 3 5.5799 3 6.7 3H18.3C19.4201 3 19.9802 3 20.408 3.21799C20.7843 3.40973 21.0903 3.71569 21.282 4.09202C21.5 4.51984 21.5 5.0799 21.5 6.2V17.8C21.5 18.9201 21.5 19.4802 21.282 19.908C21.0903 20.2843 20.7843 20.5903 20.408 20.782C19.9802 21 19.4201 21 18.3 21H6.7C5.57989 21 5.01984 21 4.59202 20.782C4.21569 20.5903 3.90973 20.2843 3.71799 19.908C3.5 19.4802 3.5 18.9201 3.5 17.8V6.2Z" stroke="#37474F" stroke-width="2" stroke-linecap="round"/>
<path d="M19.5 21L15.5 6.5" stroke="#37474F" stroke-width="2"/>
<path d="M21.5 6L3.5 8" stroke="#37474F" stroke-width="2"/>
<path d="M13.5 14.0882C13.5 15.9272 11.7611 17.2334 10.9311 17.7521C10.6647 17.9186 10.3353 17.9186 10.0689 17.7521C9.2389 17.2334 7.5 15.9272 7.5 14.0882C7.5 12.2353 8.9536 11 10.5 11C12.1 11 13.5 12.2353 13.5 14.0882Z" stroke="#37474F" stroke-width="2"/>
</svg>
