<svg width="28" height="28" viewBox="0 0 28 28" fill="none" xmlns="http://www.w3.org/2000/svg">
<path d="M7.58624 8.13776C7.91575 4.84267 10.6885 2.33337 14 2.33337V2.33337C17.3115 2.33337 20.0843 4.84267 20.4138 8.13776L20.7482 11.4816C20.8013 12.0133 20.8279 12.2792 20.8714 12.5393C21.0285 13.4795 21.3524 14.3842 21.8278 15.2104C21.9593 15.439 22.1075 15.6613 22.404 16.106L23.5937 17.8906C24.5062 19.2594 24.9625 19.9438 24.6798 20.4719C24.3972 21 23.5747 21 21.9296 21H6.07038C4.42535 21 3.60284 21 3.32019 20.4719C3.03753 19.9438 3.49378 19.2594 4.40628 17.8906L5.59606 16.106C5.89249 15.6613 6.0407 15.439 6.1722 15.2104C6.64762 14.3842 6.97152 13.4795 7.12864 12.5393C7.17209 12.2792 7.19868 12.0133 7.25186 11.4816L7.58624 8.13776Z" fill="#222222"/>
<path d="M11.7462 24.0676C11.8791 24.1917 12.1721 24.3013 12.5796 24.3795C12.9871 24.4576 13.4864 24.5 14 24.5C14.5137 24.5 15.0129 24.4576 15.4205 24.3795C15.828 24.3013 16.1209 24.1917 16.2538 24.0676" stroke="#222222" stroke-width="2" stroke-linecap="round"/>
</svg>
