<svg width="30" height="28" viewBox="0 0 30 28" fill="none" xmlns="http://www.w3.org/2000/svg">
<path d="M1 14C1 6.8203 6.8203 1 14 1H16C23.1797 1 29 6.8203 29 14V14C29 21.1797 23.1797 27 16 27H14C6.8203 27 1 21.1797 1 14V14Z" fill="white" stroke="#2E7D32"/>
<ellipse cx="15" cy="11.1112" rx="6.22222" ry="5.77778" fill="#222222" stroke="#2E7D32" stroke-linecap="round"/>
<path fill-rule="evenodd" clip-rule="evenodd" d="M24.835 23.2754C24.894 23.374 24.8749 23.4999 24.7902 23.5777C22.476 25.7027 19.3895 26.9999 16 26.9999H14C10.6105 26.9999 7.52406 25.7028 5.20989 23.5778C5.12524 23.5001 5.10609 23.3741 5.16514 23.2755C6.91534 20.3529 10.6614 18.3333 15.0001 18.3333C19.3387 18.3333 23.0847 20.3529 24.835 23.2754Z" fill="#222222"/>
<path d="M5.20989 23.5778L4.87171 23.9461L5.20989 23.5778ZM5.16514 23.2755L5.5941 23.5324L5.16514 23.2755ZM24.7902 23.5777L25.1284 23.946L24.7902 23.5777ZM24.835 23.2754L25.2639 23.0185L24.835 23.2754ZM24.7902 23.5777L24.4521 23.2094C22.2265 25.253 19.2594 26.4999 16 26.4999V26.9999V27.4999C19.5196 27.4999 22.7256 26.1524 25.1284 23.946L24.7902 23.5777ZM16 26.9999V26.4999H14V26.9999V27.4999H16V26.9999ZM14 26.9999V26.4999C10.7406 26.4999 7.77361 25.2531 5.54806 23.2095L5.20989 23.5778L4.87171 23.9461C7.2745 26.1524 10.4805 27.4999 14 27.4999V26.9999ZM5.16514 23.2755L5.5941 23.5324C7.23811 20.7872 10.8039 18.8333 15.0001 18.8333V18.3333V17.8333C10.5189 17.8333 6.59258 19.9187 4.73618 23.0186L5.16514 23.2755ZM15.0001 18.3333V18.8333C19.1963 18.8333 22.762 20.7871 24.406 23.5323L24.835 23.2754L25.2639 23.0185C23.4075 19.9186 19.4812 17.8333 15.0001 17.8333V18.3333ZM5.20989 23.5778L5.54806 23.2095C5.6357 23.29 5.65866 23.4246 5.5941 23.5324L5.16514 23.2755L4.73618 23.0186C4.55353 23.3236 4.61477 23.7102 4.87171 23.9461L5.20989 23.5778ZM24.7902 23.5777L25.1284 23.946C25.3854 23.71 25.4466 23.3234 25.2639 23.0185L24.835 23.2754L24.406 23.5323C24.3415 23.4245 24.3644 23.2899 24.4521 23.2094L24.7902 23.5777Z" fill="#2E7D32"/>
</svg>
