<svg width="21" height="27" viewBox="0 0 21 27" fill="none" xmlns="http://www.w3.org/2000/svg">
<path d="M10.528 22.9546C10.407 22.9547 10.2882 22.9212 10.1847 22.8577C9.17228 22.24 8.35417 21.3436 7.82576 20.273C7.29735 19.2023 7.0804 18.0016 7.20021 16.8109C7.33503 15.7043 7.69106 14.6372 8.24658 13.6745C8.77054 12.7679 9.35491 11.8984 9.99565 11.0722C10.5996 10.2944 11.1515 9.47659 11.6477 8.62419C12.1149 7.82212 12.4164 6.9323 12.5337 6.00871C12.6244 5.07244 12.4538 4.12919 12.0414 3.28622C11.9622 3.1261 11.9491 2.94069 12.0049 2.77078C12.0608 2.60086 12.1809 2.46036 12.3391 2.38019C12.4972 2.30002 12.6803 2.28674 12.8481 2.34327C13.0159 2.3998 13.1546 2.52152 13.2338 2.68164C13.7579 3.7537 13.9744 4.95324 13.8585 6.14374C13.724 7.25029 13.3682 8.31746 12.8127 9.28008C12.2881 10.1868 11.703 11.0562 11.0617 11.8824C10.4575 12.66 9.90553 13.4779 9.40963 14.3304C8.94299 15.1329 8.64212 16.0229 8.52526 16.9466C8.43103 17.8829 8.6017 18.8271 9.01734 19.6689C9.43298 20.5107 10.0765 21.2154 10.8727 21.7009C10.9977 21.777 11.0946 21.8925 11.1485 22.0297C11.2025 22.1669 11.2105 22.3183 11.1714 22.4606C11.1323 22.6028 11.0482 22.7282 10.932 22.8174C10.8157 22.9067 10.6738 22.9549 10.528 22.9546Z" fill="#37474F"/>
<path d="M11.754 20.2541C11.3222 20.254 10.8921 20.1973 10.4747 20.0853C10.3608 20.0549 10.2569 19.9944 10.1736 19.9101C10.0902 19.8258 10.0305 19.7206 10.0003 19.6053C9.77588 18.7864 9.77001 17.9218 9.98329 17.0999C10.1966 16.2779 10.6214 15.528 11.2144 14.9266C11.8138 14.3242 12.5584 13.891 13.3742 13.6699C14.1901 13.4489 15.0488 13.4477 15.8652 13.6664C15.979 13.6969 16.0829 13.7574 16.1661 13.8417C16.2494 13.926 16.3091 14.0312 16.3392 14.1465C16.5552 14.9732 16.5539 15.8428 16.3357 16.669C16.1174 17.4951 15.6896 18.2491 15.0948 18.8562C14.6568 19.3012 14.1361 19.6539 13.5626 19.8938C12.9892 20.1338 12.3745 20.2562 11.754 20.2541ZM11.208 18.8613C11.7388 18.9482 12.2825 18.9065 12.7942 18.7394C13.306 18.5723 13.7714 18.2847 14.1521 17.9002C14.5345 17.5094 14.822 17.034 14.9918 16.5114C15.1615 15.9889 15.209 15.4335 15.1305 14.8891C14.5929 14.8092 14.0444 14.8572 13.5283 15.0291C13.0122 15.2011 12.5427 15.4924 12.1571 15.8799C11.7771 16.2656 11.493 16.7371 11.328 17.2556C11.1631 17.7741 11.1219 18.3249 11.208 18.8626V18.8613Z" fill="#37474F"/>
<path d="M9.24662 8.10163C8.62613 8.10357 8.01142 7.98091 7.43805 7.74073C6.86467 7.50056 6.344 7.14765 5.90617 6.70241C5.3114 6.0953 4.8837 5.34127 4.66548 4.51512C4.44726 3.68897 4.4461 2.8194 4.66212 1.99266C4.69224 1.87739 4.75196 1.77225 4.83522 1.68793C4.91848 1.60362 5.02231 1.54314 5.13614 1.51264C5.95251 1.29382 6.81119 1.29499 7.62698 1.51604C8.44276 1.73709 9.18728 2.17034 9.78664 2.77278C10.3797 3.37438 10.8046 4.12457 11.0178 4.94677C11.231 5.76897 11.225 6.63375 11.0004 7.45283C10.9702 7.5681 10.9105 7.67324 10.8273 7.75756C10.744 7.84187 10.6402 7.90235 10.5263 7.93285C10.1087 8.04469 9.67859 8.10143 9.24662 8.10163ZM5.87083 2.73801C5.79211 3.28235 5.8395 3.83776 6.00924 4.36035C6.17898 4.88295 6.46643 5.3584 6.84887 5.74912C7.22946 6.13374 7.69476 6.42139 8.20653 6.58841C8.71829 6.75543 9.2619 6.79704 9.79264 6.70984C9.87851 6.17238 9.8373 5.62195 9.67238 5.10375C9.50747 4.58554 9.22355 4.11433 8.84394 3.72878C8.45813 3.34155 7.98869 3.05047 7.47271 2.87852C6.95672 2.70657 6.40833 2.65847 5.87083 2.73801Z" fill="#37474F"/>
<path d="M10.4617 26.9994C8.62854 27.0123 6.79921 26.829 5.00414 26.4525C2.19437 25.8266 0.639644 24.8139 0.508306 23.5241C0.441637 22.8527 0.744648 21.8774 2.58271 21.0423C3.36214 20.703 4.17339 20.4443 5.00414 20.2699C5.17568 20.2344 5.35414 20.2686 5.50097 20.3652C5.64779 20.4618 5.7512 20.613 5.78885 20.7862C5.8265 20.9594 5.79537 21.1406 5.70218 21.2907C5.60899 21.4408 5.46123 21.5478 5.29081 21.5885C4.54913 21.743 3.82468 21.9727 3.1284 22.2741C2.13603 22.7251 1.81135 23.1548 1.83335 23.3857C1.87435 23.7881 2.82839 24.5858 5.28948 25.134C9.38629 26.0454 15.0308 25.7385 17.8716 24.448C18.864 23.9974 19.1883 23.5673 19.165 23.3368C19.124 22.934 18.1699 22.1367 15.7092 21.5885C15.6224 21.5708 15.5399 21.5358 15.4665 21.4855C15.3932 21.4352 15.3305 21.3706 15.2821 21.2954C15.2337 21.2203 15.2006 21.1362 15.1847 21.048C15.1688 20.9597 15.1704 20.8692 15.1894 20.7816C15.2084 20.694 15.2445 20.6111 15.2955 20.5378C15.3465 20.4644 15.4114 20.4021 15.4865 20.3545C15.5615 20.3069 15.6452 20.2749 15.7326 20.2603C15.82 20.2458 15.9094 20.2491 15.9955 20.2699C18.8056 20.8955 20.3604 21.9082 20.4917 23.1983C20.5584 23.8694 20.2554 24.845 18.4173 25.6801C16.5286 26.5386 13.5128 26.9994 10.4617 26.9994Z" fill="#37474F"/>
<path d="M12.5004 0.675136C12.5004 0.808665 12.4613 0.939196 12.388 1.05022C12.3148 1.16125 12.2107 1.24778 12.0888 1.29888C11.967 1.34998 11.833 1.36335 11.7036 1.3373C11.5743 1.31125 11.4555 1.24695 11.3623 1.15253C11.2691 1.05811 11.2056 0.937812 11.1798 0.806848C11.1541 0.675885 11.1673 0.540137 11.2178 0.416772C11.2682 0.293407 11.3537 0.187966 11.4633 0.113781C11.573 0.0395961 11.7019 0 11.8337 0C12.0105 0 12.1801 0.0711303 12.3051 0.197743C12.4302 0.324355 12.5004 0.496079 12.5004 0.675136Z" fill="#37474F"/>
</svg>
