<svg width="49" height="49" viewBox="0 0 49 49" fill="none" xmlns="http://www.w3.org/2000/svg">
<path d="M23.3743 34.6382C23.2376 34.6383 23.1035 34.6009 22.9865 34.5301C21.8431 33.8412 20.9191 32.8414 20.3222 31.6473C19.7254 30.4531 19.4804 29.114 19.6157 27.7859C19.768 26.5517 20.1701 25.3615 20.7975 24.2878C21.3893 23.2766 22.0494 22.3068 22.773 21.3854C23.4552 20.5179 24.0786 19.6057 24.639 18.655C25.1667 17.7604 25.5071 16.768 25.6397 15.7378C25.7421 14.6936 25.5494 13.6416 25.0836 12.7014C24.9942 12.5228 24.9794 12.316 25.0424 12.1265C25.1055 11.937 25.2413 11.7803 25.4198 11.6908C25.5984 11.6014 25.8052 11.5866 25.9947 11.6497C26.1842 11.7127 26.341 11.8485 26.4304 12.0271C27.0224 13.2228 27.2668 14.5606 27.1359 15.8885C26.984 17.1226 26.5822 18.3129 25.9548 19.3865C25.3622 20.3978 24.7015 21.3675 23.9771 22.289C23.2946 23.1563 22.6713 24.0684 22.1112 25.0194C21.5841 25.9143 21.2443 26.907 21.1123 27.9372C21.0059 28.9815 21.1986 30.0346 21.6681 30.9735C22.1375 31.9124 22.8643 32.6984 23.7636 33.2399C23.9048 33.3248 24.0142 33.4536 24.0752 33.6066C24.1361 33.7597 24.1452 33.9285 24.101 34.0872C24.0568 34.2458 23.9618 34.3857 23.8306 34.4852C23.6993 34.5847 23.539 34.6385 23.3743 34.6382Z" fill="#2E7D32"/>
<path d="M24.7591 31.6262C24.2713 31.6261 23.7856 31.5629 23.3141 31.4379C23.1854 31.404 23.0681 31.3366 22.974 31.2425C22.8799 31.1485 22.8124 31.0312 22.7783 30.9026C22.5248 29.9892 22.5182 29.0249 22.7591 28.1082C23 27.1914 23.4798 26.355 24.1495 25.6843C24.8266 25.0124 25.6676 24.5292 26.589 24.2827C27.5105 24.0361 28.4803 24.0348 29.4025 24.2788C29.531 24.3128 29.6483 24.3802 29.7423 24.4743C29.8364 24.5683 29.9038 24.6856 29.9379 24.8142C30.1818 25.7363 30.1804 26.7062 29.9338 27.6276C29.6873 28.549 29.2042 29.39 28.5324 30.0671C28.0377 30.5634 27.4495 30.9568 26.8018 31.2244C26.1541 31.492 25.4599 31.6286 24.7591 31.6262ZM24.1424 30.0727C24.7419 30.1697 25.3559 30.1232 25.934 29.9368C26.512 29.7505 27.0376 29.4297 27.4676 29.0008C27.8995 28.565 28.2242 28.0347 28.416 27.4519C28.6077 26.869 28.6614 26.2496 28.5727 25.6425C27.9655 25.5534 27.346 25.6068 26.7631 25.7986C26.1801 25.9904 25.6499 26.3153 25.2143 26.7475C24.7852 27.1777 24.4643 27.7035 24.2779 28.2819C24.0916 28.8602 24.0451 29.4745 24.1424 30.0743V30.0727Z" fill="#2E7D32"/>
<path d="M21.927 18.0722C21.2262 18.0743 20.5319 17.9375 19.8843 17.6696C19.2367 17.4018 18.6486 17.0082 18.1541 16.5116C17.4824 15.8344 16.9993 14.9934 16.7528 14.072C16.5063 13.1506 16.505 12.1807 16.749 11.2586C16.783 11.13 16.8505 11.0128 16.9445 10.9187C17.0386 10.8247 17.1558 10.7572 17.2844 10.7232C18.2065 10.4792 19.1763 10.4805 20.0977 10.727C21.0191 10.9736 21.86 11.4568 22.537 12.1287C23.2068 12.7997 23.6867 13.6364 23.9275 14.5534C24.1684 15.4705 24.1616 16.435 23.9078 17.3485C23.8738 17.4771 23.8063 17.5944 23.7123 17.6884C23.6183 17.7824 23.501 17.8499 23.3724 17.8839C22.9008 18.0087 22.4149 18.0719 21.927 18.0722ZM18.1142 12.0899C18.0253 12.697 18.0788 13.3165 18.2705 13.8994C18.4623 14.4822 18.7869 15.0125 19.2189 15.4483C19.6487 15.8773 20.1743 16.1981 20.7523 16.3844C21.3303 16.5707 21.9443 16.6171 22.5438 16.5198C22.6407 15.9204 22.5942 15.3065 22.4079 14.7285C22.2217 14.1505 21.901 13.625 21.4722 13.195C21.0365 12.7631 20.5063 12.4384 19.9235 12.2466C19.3407 12.0549 18.7213 12.0012 18.1142 12.0899Z" fill="#2E7D32"/>
<path d="M23.2994 39.1494C21.2289 39.1639 19.1628 38.9594 17.1353 38.5395C13.9618 37.8415 12.2058 36.712 12.0574 35.2734C11.9821 34.5245 12.3244 33.4368 14.4004 32.5053C15.2807 32.1269 16.197 31.8383 17.1353 31.6439C17.3291 31.6042 17.5306 31.6424 17.6965 31.7502C17.8623 31.8579 17.9791 32.0266 18.0216 32.2197C18.0641 32.4128 18.029 32.6149 17.9237 32.7824C17.8185 32.9498 17.6516 33.0691 17.4591 33.1145C16.6214 33.2869 15.8032 33.543 15.0167 33.8792C13.8959 34.3822 13.5292 34.8615 13.554 35.119C13.6003 35.5678 14.6779 36.4575 17.4576 37.0689C22.0848 38.0854 28.4601 37.7432 31.6686 36.3038C32.7895 35.8012 33.1558 35.3215 33.1294 35.0644C33.0831 34.6152 32.0056 33.7259 29.2263 33.1145C29.1282 33.0948 29.035 33.0557 28.9522 32.9996C28.8694 32.9435 28.7986 32.8715 28.7439 32.7877C28.6893 32.7039 28.6519 32.61 28.6339 32.5116C28.6159 32.4132 28.6177 32.3122 28.6392 32.2145C28.6607 32.1168 28.7014 32.0244 28.759 31.9426C28.8166 31.8608 28.89 31.7913 28.9747 31.7382C29.0595 31.6851 29.154 31.6494 29.2527 31.6332C29.3514 31.617 29.4524 31.6206 29.5497 31.6439C32.7236 32.3415 34.4796 33.471 34.6279 34.91C34.7032 35.6585 34.361 36.7466 32.285 37.6781C30.1517 38.6355 26.7455 39.1494 23.2994 39.1494Z" fill="#2E7D32"/>
<path d="M25.6021 9.78913C25.6021 9.93806 25.5579 10.0836 25.4752 10.2075C25.3924 10.3313 25.2748 10.4278 25.1372 10.4848C24.9996 10.5418 24.8482 10.5567 24.7022 10.5277C24.5561 10.4986 24.4219 10.4269 24.3166 10.3216C24.2113 10.2163 24.1396 10.0821 24.1105 9.93604C24.0815 9.78997 24.0964 9.63857 24.1534 9.50097C24.2104 9.36338 24.3069 9.24578 24.4307 9.16304C24.5546 9.0803 24.7001 9.03613 24.8491 9.03613C25.0488 9.03613 25.2403 9.11547 25.3815 9.25668C25.5227 9.3979 25.6021 9.58943 25.6021 9.78913Z" fill="#2E7D32"/>
</svg>
